<svg aria-hidden="true" style="position: absolute; width: 0; height: 0; overflow: hidden;" version="1.1" xmlns="http://www.w3.org/2000/svg" xmlns:xlink="http://www.w3.org/1999/xlink">
<defs>
<symbol id="icon-Trash" viewBox="0 0 32 32">
<path d="M8 25.333c0 1.467 1.2 2.667 2.667 2.667h10.667c1.467 0 2.667-1.2 2.667-2.667v-16h-16v16zM25.333 5.333h-4.667l-1.333-1.333h-6.667l-1.333 1.333h-4.667v2.667h18.667v-2.667z"></path>
</symbol>
<symbol id="icon-Camera" viewBox="0 0 32 32">
<path d="M9.56 6.667l2.44-2.667h8l2.44 2.667h4.227c1.467 0 2.667 1.2 2.667 2.667v16c0 1.467-1.2 2.667-2.667 2.667h-21.333c-1.467 0-2.667-1.2-2.667-2.667v-16c0-1.467 1.2-2.667 2.667-2.667h4.227zM9.333 17.333c0 3.68 2.987 6.667 6.667 6.667s6.667-2.987 6.667-6.667c0-3.68-2.987-6.667-6.667-6.667s-6.667 2.987-6.667 6.667zM16 21.6c2.356 0 4.267-1.91 4.267-4.267s-1.91-4.267-4.267-4.267c-2.356 0-4.267 1.91-4.267 4.267s1.91 4.267 4.267 4.267z"></path>
</symbol>
</defs>
</svg>